<svg xmlns="http://www.w3.org/2000/svg" width="198.9" height="186.5"><g fill="#ff8080" font-size="65.5"><g fill="#501616" font-family="Circuit Bored NF"><path d="M35 67.3v-33H18.4v33H7v-51c-2-.2-3.6-1-5-2.6C.7 12 0 10.3 0 8.3 0 7.3.2 6 .7 5c.4-1 1-1.8 1.7-2.6C3.2 1.7 4 1 5 .7 6 .2 7.3 0 8.4 0c1 0 2.2.2 3.2.7 1 .4 2 1 2.6 1.7.8.8 1.4 1.7 2 2.7.3 1 .5 2.2.5 3.3 0 2-.7 3.8-2 5.4-1.3 1.5-3 2.4-5 2.7v15.3H35V7h11.5v60.3H35m-21-59c0-1.6-.6-3-1.8-4-1-1-2.3-1.6-4-1.6-1.5 0-2.8.5-4 1.7-1 1-1.5 2.3-1.5 4 0 1.5.5 2.8 1.6 4 1 1 2.4 1.5 4 1.5s3-.6 4-1.7c1-1 1.6-2.4 1.6-4M86.8 67.3v-33H68.2v33H56.7v-51c-2-.2-3.7-1-5-2.6-1.4-1.6-2-3.4-2-5.4 0-1 .2-2.2.6-3.2.4-1 1-1.8 1.8-2.6.8-.7 1.7-1.3 2.7-1.7 1-.5 2-.7 3.2-.7 2 0 3.8.7 5.3 2C65 3.3 65.8 5 66 7h32.3v60.3H86.8m0-57.7H66c-.2 1.8-1 3.3-2.3 4.6-1.2 1.2-2.7 2-4.5 2.2v15.3h27.6v-22M63.6 8.2c0-1.6-.6-3-1.7-4-1.2-1-2.5-1.6-4-1.6-1.6 0-3 .5-4 1.7-1 1-1.7 2.3-1.7 4 0 1.5.6 2.8 1.6 4 1 1 2.4 1.5 4 1.5 1.5 0 2.8-.6 4-1.7 1-1 1.6-2.4 1.6-4M108.4 67.3v-51c-2-.2-3.6-1-5-2.6-1.2-1.6-2-3.4-2-5.4 0-1 .3-2.2.8-3.2.4-1 1-1.8 1.7-2.6.7-.7 1.6-1.3 2.6-1.7 1-.5 2-.7 3.2-.7 2 0 3.7.7 5.3 2 1.7 1.3 2.6 3 3 5h31.3v14.8h-11.5V9.6h-20c0 1.8-1 3.3-2.2 4.6-1.3 1.2-2.8 2-4.5 2.2v15.3h9v33h17.8V52.6h11.5v14.8h-41m7-59c0-1.6-.4-3-1.6-4-1-1-2.4-1.6-4-1.6-1.5 0-2.8.5-4 1.7-1 1-1.6 2.3-1.6 4 0 1.5.6 2.8 1.8 4 1 1 2.4 1.5 4 1.5 1.5 0 3-.6 4-1.7 1-1 1.6-2.4 1.6-4M187.3 67.3v-33H171v33h-11.7v-51c-2-.2-3.6-1-5-2.6-1.2-1.6-2-3.4-2-5.4 0-1 .3-2.2.8-3.2s1-1.8 1.8-2.6c.8-.7 1.7-1.3 2.7-1.7 1-.5 2-.7 3.2-.7 1 0 2.2.2 3 .7 1.2.4 2 1 2.8 1.7.7.8 1.3 1.7 1.8 2.7.4 1 .6 2.2.6 3.3 0 2-.8 3.8-2 5.4-1.4 1.5-3 2.4-5 2.7v15.3h10.4L186 18V7h11.5v12.8H188l-12 12h23v35.5h-11.7m-21-59c0-1.6-.5-3-1.7-4-1-1-2.3-1.6-4-1.6-1.5 0-2.8.5-4 1.7-1 1-1.5 2.3-1.5 4 0 1.5.6 2.8 1.7 4 1 1 2.4 1.5 4 1.5s3-.6 4-1.7c1-1 1.6-2.4 1.6-4" style="text-align:start;line-height:100%;-inkscape-font-specification:Circuit Bored NF"/></g><g fill="#a02c2c" font-family="Carnivalee Freakshow"><path d="M49.8 70.5h1c2 0 4.2 1 6.6 3.3l.6 1h-.3c-1-.8-2.6-1.2-4.6-1.2-1 0-1.7.3-2.3 1L52 78c-.5 0-.6.3-.6.6l-.3-.2h-.3v1h.4l.4-.8h.5c1.6 8 3.3 12 5 12l.7 1c.6 0 2 .5 3.6 1.5v.2c-1.6 1-3 2-3.6 3l5.5 17.2c.6.8 1.5 1.3 2.7 1.3h.8c1 0 2.4-.5 3.6-1.3h.3c-3.5 2.7-6.8 4-10 4l-3.6-1h-.5c-2.5.7-4.2 1.2-5 1.2H50c-2.7 0-5.3-1-7.7-3.3h.2c2.2.6 4 .8 5.2.8 1.2 0 1.8-.4 1.8-1.2l-1-2.6 2-.6H50l-1.4.3-.3-.3v-2c-1 0-1.7-1.5-2.2-4.8l-.2-.2v-.2h-7.3l-4.2-.5c0 .4-.8.5-2.4.6-1.3 3.6-2.4 6.3-3.4 8l-.3 2.4c.4.6 1.2 1 2.4 1 1 0 2-.2 3-.7v.4c-.8 1-2.8 2-6 3h-1.2c-1.7 0-3.4-.6-5.2-1.6H21c-1.7 1-3.3 1.4-4.8 1.4H15c-5-.6-7.3-1.7-7.3-3 1.3.4 2.6.6 4 .6 2.2 0 3.8-1 4.8-3h.3-.3v-.6l2.7-4-.3-.2v-.4l1-2.7H20l2.7-5.2-.3-.2v-.2c.4-.2.7-1 1-2.2-.6-.8-1.8-1.8-3.7-3 .3-.5 2-1.3 4.5-2.4l2.2-1.6c0-1 1-1.7 3-2.2l-1-.3c0 .6-.4 1-1 1V87c2.5-5.2 3.8-8.4 3.8-9.5l.6-1.3c0-1.6-1-2.3-3.3-2.3l-2.7.7c2.4-2.3 4.6-3.4 6.7-3.4 0-.2.5-.3 1.4-.3v.2l.3-.2h.7v.3h.6V71c2.5 0 5 .7 7.8 2 2.7-1.6 5-2.5 6.8-2.5m-14 1.8v.2h.4l1-.2V72h-.5l-.8.3M33.3 74h.3l1.3-.6h-.3c-.8.2-1.3.4-1.3.5M46.8 81v.3c1 0 2-.6 3.6-1.4H50c-.7.2-1.6.6-2.6 1.2h-.6m-2 1.2h.2l1-.4v-.3H46l-1 .7m-4 1.3h.2c1-.2 1.4-.5 1.5-.7v-.2c-1.2.4-1.8.7-1.8 1m-.6-.5l-.5.7h.6l.4-.5v-.2H40m3.4.5l1 .5L46 84v.5h1c0-.4-.4-.5-1.5-.5v-.2l-.2.2H45l-1.6-.2m-10 1.8v.3l5.2-1.7V84H38l-4.6 1.6M40 84c-.3 2-1 3-2 3l.3.2-1 2.4.4.6c-1 1.2-2.3 3.6-3.7 7h-.3c.7 0 1 .3 1 .6h1.6l6.2.3s.7-.2 2-.2l-2-7.2.3-.4c-1.6-2.7-2.4-4.7-2.4-6H40m7.7.3l1 .5.2-.2v-.2h-1.3m2 .5l1 .6v-.2L50 85H50m1.5.8l1.2.3s-.3-.2-1-.2h-.2m-20.6.6v.5l1.2-.6h-1.3M25 106v.2h1v-.3h-1m-2.2.2v.2h.4l1-.2H23m-1.8.2h-.3v.3h.3l1-.2h-1m34.6 2v.3h1v-.5l-1 .2m-1 1h.3l2-.2v-.3c-1.5 0-2.4.4-2.4.6m-2.7.3h.5v-.4l-.6.3m-1 0l-.3.6h.6v-.5H51m1.5 1.6l1 .5-.7-.4h-.3m1 .6v.2l1 .3v-.5h-1m1.7.7l1 .7h.6v-.5l-1.2-.3h-.4m5.5 1.8v.2c.6.5 1.4.8 2.5.8l-2.5-1M82.2 70.7l.6.4.6-.3 1.5.5c3.8.8 5.8 1.5 6 2 1 0 2 .3 2.4 1 .6 0 1 .2 1 .6 1 0 2 .8 2.8 2.4l-.3.5.2-.2h.3c1.2.7 3.2 4 6.2 9.7l1.4 2v.4c.6.6 2 2.8 4 6.6h.3l.5-3.8-.2-.6v-.6l.5-.3-.4-.8.2-.8-.2-1.2.2-.2-.5-1 .8-.5h-.7V84c0-1.3.2-2 .5-2.6l-.5-1.4h.3l-.3-1 .3-.7-.3-.8.3-.5c-.4-2-1.7-3-4-3-.6 0-2 .4-4.3 1h-.3v-.2c2.6-1.6 5-2.6 7-3 0-.2.4-.3 1-.3l.8.2v-.2l1-.4h1c1.4 0 2.7.4 4 1.2 1.3-.7 2.5-1 3.4-1l1.2.2 1.8-.2 4.7 1.3-.4.4.3-.2h.2c2 1 3 1.7 3.2 2.2h-.5c-.8-.5-2.5-.8-5-.8-2 0-3 1-3 3h-.2l.3.8v1.7c0 .2-.4.3-1 .3l1 .8-1 .5 1 .3v.3h-.4l.3 1v2.5c0 .7-.3 1.3-.7 1.7l.3.2v.2h-.3v.3l.3.5-.3.2.3.4c.4 0 .6.5.6 1.4 1.3.2 2 .6 2 1v.4l1-.3 1.4 1v.2c-3.5 2-5.3 3.5-5.3 4.3l.6.3-.7.5h.6l-.4 1v.2l.3.6-.4.2v.2h.3v.3h-.4v.3l.3.5-.4.2v.2h.3v.3h-.4v.3l.3.2-.4.6.3 1-.7.2v.5l.6.5v.3l-.4.6.3.6-.7 1 .6.2v.2h-.4l.3.3v.3l-.4.2h.3v.7l-.7.4.6 1h-.4c0 1.2.8 2 2 3h3.6l2.6-1.3h.3c-1.4 2-3.6 3.4-6.4 4l-4.4 1h-.8c-5.7 0-8.6-.4-8.6-1l-1.7-.2c-2-.8-4-3-5.8-6.3l.3-.2h.3v-.3c-1 0-1.5-.3-1.5-1l.3-.4-.6-.3.6-.5c-.8 0-1-.5-1-1.4l-.4.2h-.3l-.7-1 .6-.2c-.8 0-1.2-.3-1.3-1h-.3l.3-1v-.4c-1 0-1.7-.8-2-2.3-1.2-.7-2.8-3.2-4.8-7.4-.8-.6-1.4-1.5-1.8-2.6H90v4l-.7.4.6 1-.7 1.5.6 1v.4l-.4 3h.3v.3l-.4.2.3 2.3v.8c0 .2-.4.3-1 .3l1 .6-.4.7.3 1.4-.4 1c0 1.7 1.5 3 4.4 4h.3v-.2h1c.5 0 1.2-.2 2-.5h.2l.6.3c-2 1.3-4 2-5.8 2-1.5.5-3 .8-4.7.8-1.3 0-2.7-.2-4-.8l-3 .7h-1.2c-.4 0-.6-.2-.6-.5h-.3l-.8.3c-.7-.3-2-.6-4.4-1l-4-1.7h.7l2.3.2h1l1.3-.2.6.4h.3l-.3-.2v-.2l2.7-1.5-.7-1 .6-1-.7-1.5.3-.8-.3-.4.3-.2-.3-.8v-1.2l.3-.7-.3-.6.3-1.6-.3-2v-.5l.3-1-.3-1V97h.3c0-1.3-1-2.3-3.3-3l-1-1v-.5c2.8-1.5 4.3-2.7 4.3-3.8l-.3-1.7v-2.4l.3-1.4-.3-1c0-1 .8-1.7 2.6-2v-.2h-.4l-1.7.7-.7-.3v-2h.6l-.4-.6.3-.4c-.6 0-1-.6-1-2l-2.4-.8h-1.2c-1 0-2.2.2-3.2.6h-.6v-.2c3.6-2 5.6-2.8 6.2-2.8l2.6-.8c.6-.2 1.8-.4 4-.5m27.7 3.5c0 .2.6.4 1.6.5 0-.3-.5-.4-1.5-.5m4.3 1.2v.4l1.7.3h.3l-2-.6m3 1l.5.3h.6v-.3h-1.2M82.6 79l.2.5h.3l-.2-.6h-.2M81 79v.2l.4.4h.3v-.4l-.3-.2H81m-1.4 1.3h.3l.5-.3h-.3l-.6.3m44 11.3l-.5.3-.8.7h.3l1.4-.8v-.2h-.4m-2.3.5l-.3.4v.3h.3l.3-.6h-.3m.3 1.3h1.2-1.2m-2 .4h.2l.6-.2h-.3l-.5.3m-1.7 1v.4l1-.2h-1m-3.5 1.5h.2l.6-.4h-.2l-.5.4m3.5.7l-.3.2v.2l1.7-.2v-.2h-1.4m-6.2.2l-3 1.3c2.2-.7 3.3-1.2 3.3-1.4h-.4m-4.7 1.7l-.4.2h1.1v-.2h-1m-2.5.8c0 .3-.3.4-1 .4l-.2.2h.4l1.2-.5h-.3m-2.7 1h1.1v-.4l-1.2.5m-3 .8v.4l1-.2v-.3h-1m-14 3.3v.5h.6l1.2-.7H86l.4-.3-1.8.5m-2 1h.2l.6-.2H83l-.5.3M164.2 70.4c4.4.3 6.6.7 6.6 1.2l.8-.2c3.2.8 5.4 2 6.6 3.6l1.8 1.4c.6 0 1 0 1 .4 3 2.8 4.7 5.6 4.7 8.5.8 1 1.4 2.8 1.8 5l3.7 2.3c-3 2-4.3 3.4-4.3 3.8h-.7v2l.3.5c-1.8 6-3.3 9-4.6 9h.3v.6c-.6 1.6-3 3.7-7.5 6.5-1.7 1-5.7 2-12 2.6l-1-.2-3.4.2c-1.4 0-5-.8-10.4-2.2h-.3c0 .3-1.4.5-4.3.8-5.3 0-9.3-1.4-12-4.2h.2c2.6 1.2 4.8 1.7 6.6 1.7h.3c2 0 2.8-1.2 2.8-3.6l.3-1-.3-1.3.3-.2-.8-2 .8-2.7-.3-1v-1l.3-.7-.5-1.7.3-.7h-.2v-.3h.3V97l-.2-.7.6-.8c-2-1-3.5-2-4.5-3 3-1.7 4.6-3 4.6-3.6h-.5v-.3l.6-.4-.5-1 2.4-1V86h-.3l-1 .5h-.7l-.2-.7v-.2l.3-.6-.2-.5h.3l-.2-.4.3-2-.2-1 .6-2-.5-1 .6-1-.3-.8.3-.2c-.4-1.3-1.3-2-2.5-2H137c-1 0-2 .5-3.5 1.3h-.3V75c3-2.3 5.5-3.6 7.8-3.6 3 0 5.4.4 7.2 1.3 1.2-.7 2.5-1 3.7-1h1c0-.4 1-.6 3-.7.8-.3 1.6-.5 2.4-.5h.4l.5.3 1.7-.3.3.2h.3l3-.3m-24.7 2.4v.3h.3l.5-.2h-1m-1 .5v.2h1v-.2h-1m18.5 2.3l.3 2-.6.2h.3v1.8l.3 1h-.3l.3.2v.2c0 .4-.5 1-1.5 1.5h1v.5l-.4.2h.3V87l-.3.7.6 1.4-.3.5 5 3v.2c0 .2-.8.7-2.5 1.4 0 .6-1 1.3-2.8 2 .6 0 1 0 1 .3l-.4 1.5.3 1.4-.6.6.3 1h-.3l.6.4-.3 2.6.3.5-.3.8.3 1-.6 3 .3.2v.2l-.3.5.3.6-.3.2.6.3-.3 1c0 .3.5.5 1.6.6h1.7c4-.2 6-.6 6-1.2 1 0 2-1.5 3.2-4.5h.3l-.4-1.6.3-.8-.4-.8c0-1.3.4-2 1-2.3-.7 0-1-.2-1-.4l.3-4c0-1-.7-2-1.8-2.4l.3-.2V94c-.8 0-1.2 0-1.2-.7l-.3.2h-.3l-1.4-.8c1.8-1 3.5-2.3 5-3.5h.2c-.6-1.3-1-2.5-1-3.6h.4-.4V80c0-2.2-1.2-3.6-3.5-4.2-.8-.2-2.6-.4-5-.5h-1.5v-.2l-2.5.3m17.5 1v.4l1.2-.3v-.2h-.3l-1 .2m-2.5 1h1.3v-.2h-1.5m-16.3 5.2v.6h.3v-.6h-.3m-6.3 1.8v.2h.2c.6-.3 1.2-.4 1.8-.4V84c-1.4 0-2 .3-2 .5m4.8 15.8l-.3.8h.6v-.2c.6 0 1-.2 1-.4h-1.4m-9.7.5c0 .3.5.5 1.4.7v-.3l-1.4-.5m2.5.8l.6.5h-1v.3h.4l1.8-.3c0-.2-.6-.4-1.8-.5m-1.7.2l1 .3v-.3h-1m4.4.4v.2h.6v.2h-.3v.3h1v-.2h1.6l-2.6-.4h-.3m2 1v.3h.3l.3-.6c-.4 0-.5.2-.5.5m4 .2v.3h1.2v-.2h-1.2m-6.6.5h.4l.6-.3h-.6l-.5.3m-1.6.3v.2h.3l1-.2v-.2h-.4l-1 .2m-.5 1l.6-.2v-.2l-.6.3m26.5.8l1 .5h.2v-.4h-1.2m2.4.5l1.4.2c0-.2-.2-.3-.7-.3h-.6m5 1h1-1M156 116l-.5.6h.6l.4-.5h-.3" style="text-align:start;line-height:125%;-inkscape-font-specification:Carnivalee Freakshow"/></g><g fill="#501616" font-family="CoffeeTin"><path d="M48.6 152.7h-8l-5-3.5v23l5.7 6v8.2h-24L11 180v-8c3.2 0 5-1.4 5-4v-15H9c-2-2.4-4.4-5-6.8-8v-22.8H41c1.7 1.5 4.2 3.8 7.3 7v23.5m-8-7.3v-22H4.3v22h6.4v-4c0-3 .2-5 .3-5.8 0-2 .8-4 1.8-5.3.5-.4 1-.7 1.7-.7s1.4.3 2 1c.6.5 1 1.3 1 2.2v37c-.3 1-1 2-2 2.6-1 .7-2 1-3.2 1v5.4h21.3v-5c-1.8 0-3.2-.4-4.3-1.4-1-.8-1.3-1.6-1.3-2.5V135c0-3.4 1-5.2 2.6-5.2.8 0 1.5.5 2 1.4.7.8 1 2 1 3.2v10.8h7m-1.4-1h-4.4v-9.8c0-1.7-.5-3-1.3-4s-1.8-1.6-2.8-1.6c-2.3 0-3.5 1.7-3.5 5.3v16.2l-2 .3c-1 0-1.5.4-1.7 1-.2 1.3.5 3 2.3 5l-3.2 11.6c-.8-5-2-9-3.4-11.8 1.7-1.4 2.5-2.7 2.5-4l-.2-1c-.3-.4-1-.7-2-.7-.8-.3-1.2-.5-1.2-1v-18.5c0-.7-.5-1.4-1.3-2-.8-.6-1.7-.8-2.6-.8-.6 0-1 0-1.4.4-1.6 1.3-2.6 3-3 5.4 0 1-.3 3.2-.3 6.4v3.5H5.2v-19.8h34v19.8m-13.8 1c-.7-1-1.6-3.3-2.8-7.2l-2.7 7.5c.5 1 1.4 2.2 2.5 4l3-4.2M97.2 186.5H59.8l-6-6.6v-7.7s.4-.2 1.6-.3c1.2 0 2-.4 2.4-1 .5-.4.8-1 .8-1.2v-33.3l-5-5.8V122l35 .2c4.8 4 7 6 7 6.4l.3 11.6v11.5l-8 .3c-1.3-1.4-3.5-3.4-6.6-6 0-1.6-.4-3.8-1-6.6-.3-.4-.7-.5-1.3 0-.3.6-.5 1.6-.4 3l.3 3c0 .3 1.7 2 4.7 5 2 2 3 4 2.8 6 0 .2.3.4.5.6h3.4l6.8 6.2v23.3m-7.8-28h-6c0 6.3-1.8 10.7-5 13.4-1.5.6-2.7 1-3.5 1-.8 0-1.4-.2-2-.5-1.2-.7-1.8-1.4-1.8-2.2V156h7.4v-8.7H71V134c0-1 .4-2 1.2-3 .8-.8 1.6-1.3 2.5-1.3h.6c4.4 2 6.7 7 7 15 .2.4.4.6.6.7h5.5v-21.8h-34v5.4l1.2.3c.8 0 1.4.3 1.7.5 1.6.7 2.4 1.5 2.4 2.3v38.6c0 .8-.8 1.6-2.4 2.4l-1.7.4c-.4 0-.7.2-.7.4v5.5h34.3v-20.8m-7.7 5.5c0-.5-.4-.8-1-.8s-1 0-1.5.3v5c0 .3.2.5.4.8 1-1 1.7-3 2.2-5.3m5.7-39.3v19.5h-3.6l-.4-.4c-.2-5.8-1.6-10-4-13-2-1.6-3.8-2.3-5.4-2-3 .4-4.3 2.2-4.3 5.2v14.4h7.5v2.4h-8.7c-1.6 0-2.5.5-2.5 1.3 0 1.7 1 3.3 3.2 5-1.5 3.2-2.3 5.8-2.6 7.8 0 1.4-.3 3.4-.7 6.2-.5 0-.6-.3-.5-.8 0-5.2-1.2-9.5-3.2-12.8 1.6-2 2.5-3.6 2.5-5.3 0-.4-.7-.7-2-.8-1-.2-1.7-.3-1.7-.5v-19c0-.7-1-1.7-3-3l-1.3-.4c-.6 0-1-.3-1-.4l.2-3.3h31.3M68.5 146l-3-8-2.7 8 2.8 3 3-3M146.8 186.3h-37.2c-2-1.6-4.2-4.2-7-7.7v-7.2c3 0 5-1 5.6-2.5V136c-1-1-3-3-5.8-5.3V122h24.2l6.7 7.3c0 .7 0 2 .2 3.6v3.4c-.3.3-1 .5-2 .7-1 .2-2 .5-2.4 1-.6.6-1 1.7-1 3.2v28.6h.3c.2 0 .4-.2.8-.8 1.5-2.6 2.3-7 2.6-12.8h9l6.2 5.8v24.3m-7.6-8v-21h-6.4l-.6 7c-.5 2.6-1.3 4.6-2.6 6-1 1.6-2.8 2.4-5 2.4-.5 0-1.2-.2-1.8-.4-.7-.2-1.4-1-2.2-2.3v-38c1-1.6 2.7-2.3 5.2-2.3v-6.5h-22v6.3c.8 0 2 .3 3.5.7 1.5.6 2.3 1.4 2.3 2.5v36.6c-.4 1.3-1.4 2.3-3 2.8-.8.5-1.5.7-2.4.7v5.7h35m-14.8-50l-3 1c-1.5.7-2.2 1.5-2.2 2.5v18.6c-1.6 0-2.6.2-3 .6-.3.3-.5 1-.5 2.2 0 .6.3 1.2 1 1.8l1.6 1.5c-1.7 4.8-2.7 8.5-3.2 11.3l-1-5c-.7-2.6-1.4-4.6-2-6.2 1.6-1.6 2.4-2.7 2.4-3.3 0-1.4-.4-2.2-1.3-2.6-.4-.4-1-.5-2-.4v-17.4c0-1.5-1-2.7-2.4-3.5-1-.8-2.3-1.2-3.8-1.2v-4h19.6v4m-7 16.6c-.8-2.4-1.6-4.7-2.4-6.6l-2.7 6.6c.6.8 1.5 2 2.5 3.8l2.6-3.7M196.6 186.3h-37.2c-2-1.6-4.2-4.2-7-7.7v-7.2c3 0 5-1 5.6-2.5V136c-1-1-3-3-5.8-5.3V122h24.2l6.7 7.3.3 3.6v3.4c-.3.3-1 .5-2 .7-1 .2-2 .5-2.3 1-.8.6-1.2 1.7-1.2 3.2v28.6h.3c.3 0 .5-.2 1-.8 1.3-2.6 2-7 2.4-12.8h9l6.2 5.8v24.3m-7.6-8v-21h-6.3l-.7 7c-.5 2.6-1.3 4.6-2.6 6-1 1.6-2.8 2.4-5 2.4-.5 0-1.2-.2-1.8-.4-.6-.2-1.4-1-2.2-2.3v-38c1-1.6 2.7-2.3 5.2-2.3v-6.5h-22v6.3c.8 0 2 .3 3.6.7 1.5.6 2.2 1.4 2.2 2.5v36.6c-.4 1.3-1.4 2.3-3 2.8-.8.5-1.5.7-2.4.7v5.7h35m-14.8-50l-3 1c-1.4.7-2.2 1.5-2.2 2.5v18.6c-1.6 0-2.6.2-3 .6-.3.3-.5 1-.5 2.2 0 .6.3 1.2 1 1.8l1.6 1.5c-1.6 4.8-2.6 8.5-3 11.3-.5-1.7-1-3.4-1.3-5-.6-2.6-1.3-4.6-2-6.2 1.7-1.6 2.5-2.7 2.5-3.3 0-1.4-.4-2.2-1.3-2.6-.6-.4-1.3-.5-2-.4 0-10-.2-16-.2-17.4 0-1.5-1-2.7-2.4-3.5-1-.8-2.3-1.2-3.8-1.2v-4h19.6v4m-7 16.6c-.8-2.4-1.6-4.7-2.4-6.6L162 145c.7.8 1.6 2 2.6 3.8l2.6-3.7" style="text-align:start;line-height:125%;-inkscape-font-specification:CoffeeTin"/></g></g></svg>